<svg xmlns="http://www.w3.org/2000/svg" viewBox="0 0 909.71 221.13"><defs><style>.cls-1{fill:#0c0c0c;}.cls-2{fill:#0b0b0b;}.cls-3{fill:#131313;}.cls-4{fill:#202020;}.cls-5{fill:#3a3a3a;}.cls-6{fill:#fefefe;}.cls-7{fill:#1b1b1b;}.cls-8{fill:#505050;}.cls-9{fill:#151515;}.cls-10{fill:#2d2d2d;}</style></defs><title>selectorRecurso 2</title><g id="Capa_2" data-name="Capa 2"><g id="Capa_1-2" data-name="Capa 1"><path d="M773.23,184.29c-1.39-1.28-2.68.08-3.89.84-3.62,6.11-7.72,11.59-14.78,14.25-16.6,6.24-33.75.52-43-14.61a86.06,86.06,0,0,1-5.37-10.14c-3.92-8.85-6.78-18.11-10.59-27-3.49-8.12-7-16.26-14-22.18-12-10.16-30.78-9.47-37.15,9.89a47.52,47.52,0,0,0-2.08,9.26c-2.06,17.5-.23,33.68,15.25,45.37,3.77,2.86,3.42,5.63-.56,8.27-5,3.31-10.66,3.38-16.38,3.34a34.19,34.19,0,0,1-33.82-32.16,124.07,124.07,0,0,1,1.68-26.87c3.53-21.51,9.34-42.62,10.81-64.51.55-8.27.45-16.4-1.9-24.24-2.28-7.57-6.37-14-15.29-15.3-3.05-.45-3.69-2.38-2.92-5.13.57-2,2.5-3.69,1.67-6.08-.48-1.37-.88-2.81-2.86-2.41-9.26,8.86-14.76,20-19.13,31.77-1.1,3,.11,2.91,2.55,2.36,7.33-1.65,12.67,1,16.09,7.6a28.8,28.8,0,0,1,2.68,8.54c1.77,10.37.42,20.65-1.28,30.82-2.85,17.08-6.38,34-9.06,51.14-.77,4.9-2.21,8.51-6.65,10.71-3,1.43-2.17,3.18-.38,5,2.11,1.2,2.78,3.12,3,5.43.66,8.79-3.7,16.21-11.92,20.13-17.06,8.13-36.29,1.85-46.07-14.95-6-10.3-9.42-21.67-13.81-32.64-3.79-9.44-7.53-18.9-15.77-25.66-10.64-8.73-28.39-9.53-35.32,7.11a54.61,54.61,0,0,0-3.72,15c-1.88,16.46,1.09,31.21,14.78,42.27,4.54,3.67,4.14,6.53-.93,9.41-4.87,2.76-10.19,2.77-15.55,2.71a33.73,33.73,0,0,1-32.76-27c-2.47-12-.42-23.94,1.57-35.73,3.36-19.86,8.4-39.42,10.06-59.57.79-9.58.59-19-2.62-28.13-2.35-6.7-6.43-11.53-14-12.62-4-.57-4.47-2.06-2.86-6,1.1-2.67,3.91-4.77,2.8-8.19-.53-1.07-1.2-1.88-2.58-1.48a61.76,61.76,0,0,0-15.83,22c-4.62,2.56-5.65,7.49-7.74,11.71a4.17,4.17,0,0,0-.19,1.72c.91,4.9.93,9.94,2.34,14.76.43,1.5-.06,3.87,2.15,3.88.45-6,.36-12,1.72-17.89,6.58-1.73,12.41,1.26,15.5,8.28,3.17,7.2,3.21,14.86,2.77,22.56-.85,15-4.15,29.62-6.95,44.32-3.2,16.84-6.56,33.67-5.52,51,.06.91.59,2.09-.67,2.6-1.06.43-1.91-.32-2.71-.88-5-3.46-7.15-8.66-8.53-14.23-.88-3.54-1.33-7.18-2-10.78a3.23,3.23,0,0,1-.45-.36,4.8,4.8,0,0,0-.52,0c-3.41,5.57-2.9,11.41-1.19,17.34a29.49,29.49,0,0,0,6.5,10.53c4.38,4.46,3.53,8-2.28,10.69-14.1,6.55-29.87.32-35.57-14.07a52,52,0,0,1-3.13-11.55c-2-13.79-1.35-27.56.56-41.3,3.2-23.09,9.76-45.59,12-68.86a58.33,58.33,0,0,0-3.12-25.53c-.63-1.76-1.6-3.52-3.89-3.17-1.89.28-2.55,1.94-3.05,3.58a10.38,10.38,0,0,0-.36,2.47c-.83,19-7,36.54-14.29,53.78-10.51,25-23,49.29-25.33,77-.4,4.65-2.78,6-7.33,5.15a41.31,41.31,0,0,1-24.3-13.77c-10.49-12-14.68-26.77-17.79-41.83-3.57-17.29-5-34.92-7.17-52.43-1.4-11.39-2.52-22.86-6.7-33.71-1-2.59-1.79-5.55-5.53-5.4a4.7,4.7,0,0,0-2.64,3.48c3.78,22.83,1,45.51-1.48,68.21.08,7.71-2.16,15.31-.89,23.12.49,3,1.77,4.21,4.63,4.09a111.39,111.39,0,0,0,11.57,39c8.2,15.84,21.08,25.34,38.8,28.31,5.79,1,10.78.67,14.82-4.32,1.86-2.29,4.39-4.06,6.69-6a6.42,6.42,0,0,0,2.49-5.15c.35-16.5,4-32.33,9.8-47.72,3.32-8.89,6.95-17.65,11.87-25.84a33.93,33.93,0,0,1-.83,7c-2.66,12.71-5.74,25.35-7.27,38.26-1.8,15.13-2.41,30.26,2.13,45.09,5.19,17,16.19,24.78,33.78,22.66,15.18-1.83,27.63-8.53,33.32-23.95.93-2.51,1.81-1.31,2.64-.34a15.23,15.23,0,0,1,1.63,3.07c12.7,24.6,50.11,28.9,68.16,7.81a41.39,41.39,0,0,0,7.42-13.49c1.11-3.17.67-4.8-2.74-6.48-9.7-4.74-15.88-12.73-17.76-23.37-1.3-7.39-.74-14.92.61-22.37.73-4,2.57-4.31,5.92-3,7.79,3.12,13.27,8.75,17.62,15.65,4.83,7.64,8.05,16.06,11.49,24.37,3.69,8.92,7.26,17.91,12.93,25.85,7.16,10,16.79,15.5,29.18,15.71,19.78.33,36-6.08,45.58-24.62.37-.71.48-1.78,1.47-1.8s1,1.15,1.24,1.83c8.92,22.59,32.66,30.5,56.42,21.29,11.17-4.34,17.88-13,21.23-24.31.55-1.85.81-3.36-1.53-4.5-21.67-10.57-21.66-30-18.42-47.29.61-3.24,2.31-3.43,5-2.44,6.84,2.51,12,7.09,16.22,12.83s7.07,12,9.84,18.48c4.13,9.64,7.64,19.55,12.79,28.73C696.94,207,703,214.1,712.33,217.8c24.72,9.81,54-4.53,60.91-29.87C774,186.7,774.23,185.21,773.23,184.29Z"/><path d="M192.11,142.85c1.26-14.77,4.45-29.27,6.45-43.94,2.21-16.19,4.25-32.41,1.54-48.72-1.16-7-3.07-13.76-11.23-16.2-3.15-1-.73-3.08-.18-4.32,9.24-20.76,29.68-32,52.89-29.26,27.39,3.26,42,17.47,47.52,45.94,3.44,17.7,4.2,35.69,6.06,53.56.44,4.22,1,8.42,1.52,12.64l1.28.2c3.66-9.16,7.5-18.25,10.92-27.5,4.87-13.19,8.15-26.77,8.1-40.93,0-6.37-.45-12.8-6.62-16.85-1.68-1.1-.75-2.34-.16-3.46,2.48-4.71,5-9.42,9.19-12.91,2.27-2.88,4.9-2.61,7.71-.88,7.61,4,8.14,11.49,8.43,18.54.54,13.1-2.18,25.82-6.1,38.29-3.71,11.79-8.9,23-13.63,34.37-4.55,10.94-8.94,21.92-10.37,33.82a13.14,13.14,0,0,1-1.1,3.83c-1.36,3-3.67,3.28-5.7.67a17.12,17.12,0,0,1-2.44-5.44A153.94,153.94,0,0,1,289.77,101c-1.67-17.55-2.12-35.25-6-52.55a91.15,91.15,0,0,0-5.3-16.63c-7.81-17.95-22.58-24.91-41-26.27A41.75,41.75,0,0,0,216.1,9.23c-6.61,3.15-7,5.31-2.81,11.25,5,7.11,6,15.46,6.36,23.81,1,22.78-2.6,45.15-6.43,67.5-2.79,16.26-5.05,32.59-4.49,49.16.33,9.82,2.33,19.16,7.87,27.5,8.38,12.62,28,17.81,41.46,11,3.57-1.8,4.17-4,1.21-5.86-12.37-7.73-17.87-19.28-19.14-33.32,0-5-.06-10,.11-15,.1-.92.27-1.83.4-2.75.56-2.87-.18-6.09,2.35-8.43.64-.6,1.31-1.22,2.13-.85.58.26.66,1.1.61,1.79-.14,2.47.38,5-.34,7.43-1.33,8-1.61,16,.81,23.88,3.72,12,10.6,21.31,23.28,25,2.56.75,3.76,1.34,2.33,4.34-8.89,18.69-35.84,29.95-55.54,23.11a32.29,32.29,0,0,1-16-11.45c-2.16-3-3.42-3.19-5.72-.19a33.68,33.68,0,0,1-13,9.9c-18.26,8.35-33.73,1.5-39.78-17.61-1.72-5.43-1.72-5.43-5.41-1.5-28.11,30-76.26,30.42-107,1C12.9,183.12,5.14,163.25,1.89,141.31-2.14,114.15-.28,87.62,13,63.06,34.72,23,68.21,1.91,114.25,1.89A109.75,109.75,0,0,1,151.53,8c37.2,13.28,37.89,52.64,17.47,73.5-14.75,15-32.83,20.14-53.5,16.61-3.81-.65-3.63-1.83-1.59-4.71,10.75-15.17,11.3-34.34,1.67-48.77-7.24-10.84-18.53-14.83-30.44-10.9a12.08,12.08,0,0,0-6.86,5.37c-8.12,13-12,27.42-13.44,42.49-2.13,22.29-.08,44,11.26,63.9,5.38,9.45,12.51,17.23,22.33,22.26,8.75,4.48,17.8,4.94,27.19,2.24,3.34-1,5-2.81,5.27-6.26,1-15.8-6.21-28.84-25-27.64-4,.26-4.67-.59-3.13-4.2,4.52-10.59,11.29-19.14,21.41-24.86,2.76-1.15,2.62.79,2.69,2.51-2.3,6-2.36,6.27,4.35,8,13.91,3.6,19.66,19,18.12,31.92-1.8,15-15,26.13-30.12,27.1C96,178.05,81.7,165.41,71.13,147c-11.29-19.62-13.7-41.09-11.75-63.3,1.09-12.54,3.38-24.8,8.64-36.27,6.22-13.6,14.41-25.62,29-31.55a29.41,29.41,0,0,1,36.5,12.33c8.6,14.38,9.82,29.42,3.54,45-.37.93-.71,1.87-1.12,2.78-1.22,2.68-.36,4.26,2.54,4.45,21.9,1.46,42.21-11,37.79-38.35-2.06-12.71-9.88-21.26-21.19-26.7a82.79,82.79,0,0,0-34.82-7.86c-9-.15-17.95-.39-26.89,1.32C53.73,16.47,26.07,45,19.94,85.84c-3.73,24.9-.94,49.47,9.93,72.24,13.37,28,36.51,42.25,67.61,43.54,11.58.48,22.54-1,32.45-7.67a51.87,51.87,0,0,0,16.88-18.72c1.19-2.2,2.27-4.46,3.42-6.68,1-1.9,1.67-4.34,4.46-3.92s2.68,3,3,5.1c1.06,7.28,2.44,14.49,5.86,21.08,4.16,8,12.49,12.09,20.81,10.38,5.45-1.12,7-3.47,5.85-8.84-.64-2.93-1.48-5.81-2-8.76-1.21-8.17-1.36-16.3.93-24.33C189.05,153.59,191.76,148.44,192.11,142.85Z"/><path d="M810.88,166.23c.41-5.14.68-10.3,1.28-15.42.33-2.77-.37-3.85-3.3-4-11.54-.45-23.06-.95-33.57,5.11-2.2,1.27-3.24.52-4.23-1.5A28,28,0,0,1,768.68,132c4.31-20.39,20.11-33.23,42.2-34.35,9.08-.46,9.43-1,6.89-9.83a20.76,20.76,0,0,0-5.39-9.42c-.73-.7-2.28-1.42-1-2.79,7.09-7.8,12.9-17,24.43-19.53,18.15-3.91,31.48,6.84,32.24,26.75.2,5.46-.51,11-1,16.44-.19,2.43.26,3.73,3.1,3.71,11.17-.1,22.43.34,32.4-6,2.29-1.47,2.81,0,3.64,1.56a28.89,28.89,0,0,1-3.56,32.71c-9.58,11.45-22.57,16.92-36.75,19.47-5.62,1-7,3.29-6.63,8.44.51,6.75,1.06,13.34,6.47,18.29a2.64,2.64,0,0,1,.81,3.45C862.23,191.56,844.62,202,833,200.56c-12.61-1.53-20.31-9.36-21.59-22.34-.4-3.95-.07-8-.07-12Z"/><path class="cls-1" d="M773.24,187.93c.12-2.43-.73-2.57-2.32-1-2.56-1.68-1.49-4.12-1.32-6.36.45-5.8-.55-6.7-6.22-6.35-12.2.74-20.82-5.54-28-14.52-4.19-5.22-7.29-11.13-10.84-16.77-5.57-8.86-10.68-18.06-20-23.83-3.08-1.91-2.52-4.95.71-6.58a15.91,15.91,0,0,1,4.35-1.06c22.88-4.6,39.62-23.38,40-46.68.34-20.72-8.37-38.06-31.43-48.33-20.21-9-41.59-11.11-63.52-9.26-10.52.89-20.77,2.64-30.65,6.46A60.37,60.37,0,0,0,604.16,26c-1.33,1.24-2.45,3.54-5,1.91-.4-1-.81-2-1.22-3,9.75-10.79,22.26-16.78,36.1-20,26.21-6.12,52.31-5.28,77.84,3.29,20.3,6.8,36,18.94,41.27,41,7.06,29.36-7.29,56-35.7,66.13-4,1.45-4.3,2.14-1.15,5.07,5.68,5.29,8.92,12.39,12.86,18.94,4.71,7.86,9.12,15.92,15.86,22.32a25,25,0,0,0,12.54,6.81,14.07,14.07,0,0,0,10.07-1.79c5.4-3.09,5.54-3.14,6.91,3.31C775.87,176,776.12,182.12,773.24,187.93Z"/><path class="cls-2" d="M418.32,25.24c-.43-.77-.85-1.54-1.28-2.3,11-11.09,24.8-16.56,39.75-19.32,24.3-4.49,48.43-3.46,72,4.44,18.79,6.31,34,17.11,40.39,36.92,9.83,30.23-4.67,59.55-34.64,70.38-3.36,1.21-4.45,1.71-1.28,4.75,6.58,6.3,10.28,14.66,14.92,22.33,4.23,7,8.39,14,14.49,19.6,5.85,5.37,12.49,8.15,20.55,5.8-1.13,1.75-.06,2.19,1.42,2.39-.46,4.29-3.85,4.17-6.73,4.05a30.07,30.07,0,0,1-19-7.76c-7.92-7-12.69-16.2-18.07-25-5.06-8.25-9.91-16.61-18.47-21.91-1.53-1-3.12-2.26-2.56-4.44.65-2.51,2.89-3,5-3.44A52.66,52.66,0,0,0,547.5,102c26.09-19.87,25.54-60.17-1.23-79.16-13-9.22-27.88-13.22-43.41-15.17A148,148,0,0,0,457.14,9,78,78,0,0,0,423.6,23.68C422.05,24.86,420.63,26.56,418.32,25.24Z"/><path class="cls-3" d="M325.48,11.93c-1.94-.9-3.8-2.46-6.09-.83,4.78-5.9,11.39-8.56,18.54-9.72A60.68,60.68,0,0,1,368.9,4c17.36,6.34,27.32,18.73,30.2,37,.22,1.39-1.08,4,2.11,4-3,3.47-2.56,8.36-5,12-3.41-1.91-2.33-5.27-2.29-8a43.06,43.06,0,0,0-5.44-22.47c-6.9-12.14-18.07-17.81-31.31-19.61-9.94-1.36-19.9-.88-29.33,3.32A3.86,3.86,0,0,0,325.48,11.93Z"/><path class="cls-3" d="M125.35,109.32c.13-1-.07-1.91-1.19-2.31,19.29-12.34,47-7.33,58.75,10.67,1.07,1.63,2.46,3.18,2.39,5.35-1.11.86.15,2.59-1.21,3.36-2.05.51-3.22-.77-3.93-2.29-8.11-17.53-32.14-22.39-49.38-15C129,109.89,127.22,111.34,125.35,109.32Z"/><path d="M184.17,126.2c.38-1.06.76-2.12,1.13-3.17,2.33,5,3.16,10.4,4.12,15.76.35,7.28,1.2,14.53.65,21.83-2.84,2-3.62,1.55-5-3.22-.36-8.92,0-17.91-2-26.72C182.62,129.08,182.45,127.34,184.17,126.2Z"/><path class="cls-4" d="M245.39,142.39c-.15-2.28-.29-4.57-.53-8.2-1,3.74-.08,6.58-1.63,8.86-2.26-1-2.35-3.18-2.29-5.13a258.27,258.27,0,0,1,3.11-31.77c.27-1.74.95-3.24,3.07-3.32.93,5.3-.81,10.44-.94,15.68-.09,3.83-2,7.85,1.89,11C244.74,133.27,247.08,138.25,245.39,142.39Z"/><path class="cls-5" d="M189.31,161c-.12-7.4-.65-14.81.11-22.22.37,2.62.74,5.24,1.17,8.33l1.52-4.27q-.45,8.58-.91,17.15C190.72,160.61,190.45,161.63,189.31,161Z"/><path class="cls-6" d="M247.12,102.83a285.53,285.53,0,0,0-3.89,40.22l-.11,1.71a75,75,0,0,0,0,16.54c.3,15,8.39,27,21.92,31.84,4.64,1.65,2.33,3.06.43,4.76-13.12,11.7-39.11,8.29-50.13-6.57-6.52-8.79-8.75-19-9.1-29.6-.7-20.77,2.81-41.14,6.3-61.5,3.07-17.91,5.31-35.9,4.75-54.13A61.55,61.55,0,0,0,214.1,27c-1.32-3.66-3.13-7.23-7-8.65-3.4-1.23-2.55-2.77-.91-4.66,6.45-7.43,15-10.3,24.44-10.66,31.09-1.18,49.15,13.45,55.72,44.85,3.6,17.18,4.14,34.69,5.92,52.07,1.22,11.94,2.73,23.82,6.87,35.19.6,1.63.76,3.58,3.07,5,1.28-16.85,7.75-31.76,14.22-46.67,5-11.61,10-23.25,13-35.6,2.82-11.7,5-23.49,2.86-35.58-.76-4.35-2.28-8.37-6.77-10.36-2-3.7,1.69-3.87,3.28-4.56,11.3-4.88,23-4.91,34.74-1.92,22.4,5.7,35,24.24,33,48.06-.09,1.16-.22,2.32-.34,3.48v0c.94,8.16.58,16.35.56,24.54,0,9.87-1.57,19.62-3.31,29.27-3.42,19-4.11,38.07-3.57,57.25a40.52,40.52,0,0,0,2.38,11.08c1.39,5.06,4.14,9.1,9,11.29,2.29,1,2.34,2.35,1.43,4.36a15.67,15.67,0,0,1-8.44,8.1c-16.08,7-32.71.13-39-16.18-5.48-14.25-4.92-29.11-3.61-43.93,1.91-21.62,7.75-42.57,11.26-63.93,2-12.37,3.51-24.79-.19-37.15-.38-1.27-.83-2.53-1.33-3.76-.15-.38-.55-.67-1.36-1.59-.78,10.22-1.82,19.77-4.22,29.12-4.33,16.87-11.48,32.65-18.42,48.51-7.09,16.19-13.81,32.52-16.47,50.16a106.07,106.07,0,0,0-1.32,13.41c-.07,3.12-1.05,4-4.12,3.71q-24.39-2.22-37.2-23c-9-14.65-12.47-31.1-15.08-47.78-3.12-19.91-4.25-40.09-7.92-59.92a70.4,70.4,0,0,0-6.15-19.41c-2.59.27-1,1.94-1,3.08,3.86,20.42,1.44,40.8-.41,61.18C247.48,97.87,247.31,100.35,247.12,102.83Z"/><path class="cls-7" d="M399.49,59.14c.19,22.23-3.83,44.05-6.72,66-1.61,12.27-1.43,24.56-1.37,36.87-2.23,3.61-.59,7.25-.07,10.88q.45,3.12.89,6.24c-3.42-7.1-3.43-14.81-3.85-22.4-1.06-19.56,2.44-38.74,5.18-58a314.59,314.59,0,0,0,3-35.24c.06-2.24-.27-3.43-.36-6.52,2.23,5.74.53,11.78,1.37,18.32C399.23,69.57,396.64,64,399.49,59.14Z"/><path class="cls-8" d="M248.11,34.21c-1.49-2.36-1.89-5.06-2.94-8.52a7.87,7.87,0,0,1,4,5.44Z"/><path class="cls-6" d="M184.17,126.2c3.19,10.07,3,20.49,3.21,30.85.75,9.13,2.71,18.09,3.8,27.17a26.87,26.87,0,0,0,2.42,10.65c1.76,4,.14,5.76-3.22,7.35a21.69,21.69,0,0,1-27.73-7.78c-4.64-7-6.23-15-7.21-23.15-.21-1.75.23-3.62-.77-5.2-1.06-.2-1.16.54-1.4,1.13C141.87,196,119,208.82,88.5,203.63c-37.39-6.37-61.62-30.5-69.22-69.18-4-20.16-4.77-40.39.33-60.49A91.13,91.13,0,0,1,94.9,6.08c20.77-3,41.29-2.07,60.71,6.87,17.25,7.93,25.29,22.33,23.57,41.16-1.43,15.67-14.33,27.34-32.13,28.75a106.3,106.3,0,0,1-13.47-.16c-3.23-.15-4.27-1.07-2.1-4.48,9.18-14.44,9.43-29.64,2.06-44.75C124.33,14.61,104.3,10.55,88,23.88,78.6,31.6,72.4,41.66,68.56,53c-9.92,29.44-10.79,58.85,2,87.72,5.61,12.6,14.11,22.95,26.66,29.47a36.84,36.84,0,0,0,29.58,2.17c20.8-7,24.09-25.93,16.73-41.59-4.12-8.77-11.86-12.18-21.4-11.73-1.12.06-2.87.29-3.26-.28-.8-1.21.36-2.54,1.15-3.53,1.65-2.07,3.51-4,5.28-5.94a42.24,42.24,0,0,1,26.28-5.89C166.79,104.89,177.87,112.12,184.17,126.2Z"/><path class="cls-3" d="M191.18,184.22c-1.62-9-4.44-17.85-3.8-27.17,1.11,1.1.23,3.16,1.93,4l1.89-1c-2.7,5.39-2.08,10.83-.41,16.35A20.22,20.22,0,0,1,191.18,184.22Z"/><path class="cls-4" d="M243.13,161.3c-1.33-5.51-1-11,0-16.54A106.2,106.2,0,0,1,243.13,161.3Z"/><path class="cls-6" d="M878.06,105.61c8.1-.48,16.39,0,23.89-4,2.9-1.54,3,1,3.59,2.49,4.34,11.42-.68,22.8-12.29,28-8.47,3.78-17.46,3.88-26.48,3.76-7.94-.11-8-.12-9,7.8-.92,7.44-1.62,14.9-.75,22.41.47,4,1.45,8,4.46,10.87,2.75,2.64,1.09,3.83-1.15,5.17-10,6-24.9,1.57-30.18-8.94a32.28,32.28,0,0,1-3.11-16.51c.37-7.32.87-14.63,1.61-21.92.26-2.65-.43-3.66-3.06-3.71-12.12-.22-24.39-1.83-35.77,4.13-2.85,1.49-3.48-.54-4.24-2.41a22.63,22.63,0,0,1,13.1-29.94c8.54-3.28,17.35-2.61,26.17-1.79s8.77.83,9.5-8c.36-4.48.61-9,.58-13.47,0-5.45-1.35-10.65-5.17-14.75-2.14-2.29-1.26-3.06,1.05-4.16,16.58-7.94,33.06,1.87,34.31,20.47.46,6.71-.52,13.31-1.6,19.87-.6,3.69.59,4.82,4,4.71S874.56,105.61,878.06,105.61Z"/><path d="M390,142.32v14.27h-.37V142.33Z"/><path class="cls-6" d="M772.17,172.13c-.31-1.49-.27-3.43-3.07-2.31-11.52,4.61-20.76.37-28.73-8-4.52-4.73-7.79-10.37-11.14-15.94-6.84-11.37-12.92-23.37-25.42-30.12,1.69-1.58,3.44-1.28,5-1.59,16.25-3.25,29-11.63,37.08-26.23,15.38-27.77,2.36-61.93-28.42-74.67C694.2,3.68,670,2.32,645.3,5.63,627.56,8,611.3,13.7,599.2,27.9c-2,3.47-4,6.93-4.78,10.91-.2,1.09-1.42,3,1.71,2.73,11.23-1,16.17,2.46,19,13.29,2,7.49,2,15.12,1.56,22.81-.79,13.35-3.45,26.39-6,39.46-3.28,16.82-7.16,33.57-6.6,50.9a37.74,37.74,0,0,0,49.24,34.94A18,18,0,0,0,663.88,195c1.46-2.45,1.36-3.83-1.6-5.34-9.13-4.67-14.77-12.4-17-22.29a58.5,58.5,0,0,1,1.65-31.56c5-15.22,21.09-19.22,33.2-8.56a40.14,40.14,0,0,1,10.37,15.12c3.71,8.91,7.07,18,10.66,26.92,3.72,9.3,8.07,18.17,15.14,25.61,12.71,13.39,45.63,13.93,54.62-8C772.07,182.06,773.24,177.17,772.17,172.13ZM693.38,94.19a9,9,0,0,1-6,6.63c-7.94,3.2-16.44,4.05-24.64,6.13s-8.31,2.1-6.5-6.2c3.18-14.54,4.92-29.15,3.17-44.07-.43-3.65-1.93-7-2.2-10.62a17.24,17.24,0,0,0-3-9.81c.24-2.24.24-2.24,2.4-2.12,16.22.94,33.74,15.49,37.61,31.43C696.54,75.14,695.77,84.68,693.38,94.19Z"/><path class="cls-6" d="M584.6,170.23c-9.4,3.65-17.27.31-24.34-5.66-5.67-4.78-9.37-11.17-13.19-17.44-7.14-11.72-13.16-24.38-26.2-31.35,1.75-1.53,3.49-1.26,5.07-1.57,16.21-3.27,29-11.58,37-26.21,15.56-28.35,2.32-62.2-29.17-75C513.12,4.57,491.57,2.91,469.56,4.8c-19.15,1.65-37,6.61-51.24,20.44-2.71,4.19-5.72,8.22-6.76,13.25-.41,2-.75,3.4,2.53,2.82,8.35-1.48,13.64,1.7,16.87,9.63A46.35,46.35,0,0,1,434,67.55c.35,15.44-2.44,30.49-5.38,45.54-3.39,17.31-7.5,34.51-7.49,52.31,0,25.09,19.54,42.17,44.35,38.66,6.27-.89,11.9-3.13,15.41-9,1.49-2.5,1.41-4-1.58-5.39A27.73,27.73,0,0,1,466.27,177c-8-15.53-6.65-31.29.33-46.64,3-6.66,9.28-9.28,16.6-8.83,9.13.56,15.46,5.57,20.18,13s7.72,15.84,10.82,24.1C517.71,168,521,177.39,526.32,186Q539,206.57,563,204c10.13-1.07,18.55-5.1,23.6-14.55,2.87-5.37.68-11.17,1.57-16.69C588.75,169.31,587,169.34,584.6,170.23ZM510.34,94.61c-.82,3-2.44,5-5.4,6l-13.76,4.29A52.64,52.64,0,0,0,476.12,108c-5.15,1.9-4.26-.87-3.54-3.86,2.81-11.64,4.88-23.39,4.66-35.43-.17-8.8-.63-17.55-3.83-25.9-.35-1.24-.6-2.52-1.07-3.72-.61-1.56-2-3.47-1-4.65.61-.74,3.15-.17,4.73.2C504,41.18,519,62.53,510.34,94.61Z"/><path class="cls-9" d="M491.18,104.86A52.64,52.64,0,0,0,476.12,108c-5.15,1.9-4.26-.87-3.54-3.86,2.81-11.64,4.88-23.39,4.66-35.43-.17-8.8-.63-17.55-3.83-25.9h0l-2,.29c5.86,24.11,1.9,47.73-3.82,71.48,7.49-5,16.16-4.76,24-7.36l-2.3-.5Z"/><path d="M494.22,19.24c-10.46-2.89-21-3.31-31.44.23-1.11.38-4.58.7-2.5,2.77,5.91,5.89,8.08,13.53,11.1,20.81.68,1.38,1.52,1.51,2.44.86-.13-.39-.27-.77-.41-1.15-.35-1.24-.6-2.52-1.07-3.72-.61-1.56-2-3.47-1-4.65.61-.74,3.15-.17,4.73.2,28,6.59,43,27.94,34.31,60-.82,3-2.44,5-5.4,6l-13.76,4.29c-1.36.09-2.72.22-4.06.4a1.76,1.76,0,0,0,.11,1.36c.9,1.77,2.77.92,4.3.55,13.16-1.81,25-6,31.82-18.55C538.68,60.58,524.9,27.71,494.22,19.24Z"/><path class="cls-10" d="M657.2,46.06a17.24,17.24,0,0,0-3-9.81l-1.21,3c.73,2.64,1.47,5.28,2.2,7.92.2-.77.4-1.54.59-2.31Z"/><path d="M700.28,32.8c-12.83-13.07-28.87-17.14-46.71-15.25a35.53,35.53,0,0,0-9.17,2.34c-1.9.74-2.43,1.57-.75,3.14,4.76,4.43,7,10.34,9.34,16.19a2.57,2.57,0,0,0,2.75-.24,15.11,15.11,0,0,0-1.54-2.73c.24-2.24.24-2.24,2.4-2.12,16.22.94,33.74,15.49,37.61,31.43,2.33,9.58,1.56,19.12-.83,28.63a9,9,0,0,1-6,6.63c-7.94,3.2-16.44,4.05-24.64,6.13s-8.31,2.1-6.5-6.2c3.18-14.54,4.92-29.15,3.17-44.07-.43-3.65-1.93-7-2.2-10.62a23.21,23.21,0,0,0-.29-3,1.48,1.48,0,0,0-1.57.18c-1.14.84-.8,2.58-.15,3.93a8.93,8.93,0,0,0,0,2c3.72,16.63,2.15,33.07-1.58,49.47-1.19,5.25-2.2,10.55-3.47,16.65,6-4.17,12-5.4,18-6.59,5.55-1.09,11.12-2.21,16.57-3.69,7.4-2,13.83-5.72,18.63-11.88C715.78,77.2,714.44,47.23,700.28,32.8Z"/></g></g></svg>